<svg xmlns="http://www.w3.org/2000/svg" version="1.1" xmlns:xlink="http://www.w3.org/1999/xlink" width="512" height="512" x="0" y="0" viewBox="0 0 24 24" style="enable-background:new 0 0 512 512" xml:space="preserve" class=""><g><path d="M16 6.75H3a.75.75 0 0 1 0-1.5h13a.75.75 0 0 1 0 1.5zM21.75 12a.75.75 0 0 0-.75-.75H3a.75.75 0 0 0 0 1.5h18a.75.75 0 0 0 .75-.75zm-9 6a.75.75 0 0 0-.75-.75H3a.75.75 0 0 0 0 1.5h9a.75.75 0 0 0 .75-.75z" fill="#000000" opacity="1" data-original="#000000" data-darkreader-inline-fill="" style="--darkreader-inline-fill: #000000;" class=""></path></g></svg>